<svg width="22" height="22" viewBox="0 0 22 22" fill="none" xmlns="http://www.w3.org/2000/svg">
<g clip-path="url(#clip0_140_28756)">
<rect width="21.7684" height="22" fill="white"/>
<path d="M21.5562 11.2534C21.5562 10.5056 21.4962 9.75381 21.3683 9.01819H11.1019V13.2541H16.981C16.737 14.6202 15.9531 15.8288 14.8053 16.5967V19.3452H18.3128C20.3724 17.4294 21.5562 14.6 21.5562 11.2534Z" fill="#4285F4"/>
<path d="M11.1019 22.0008C14.0374 22.0008 16.513 21.0267 18.3167 19.3453L14.8093 16.5968C13.8334 17.2677 12.5737 17.6477 11.1059 17.6477C8.26636 17.6477 5.85875 15.7116 4.99489 13.1086H1.37549V15.942C3.22319 19.6565 6.98657 22.0008 11.1019 22.0008Z" fill="#34A853"/>
<path d="M4.99093 13.1086C4.535 11.7424 4.535 10.2631 4.99093 8.89696V6.0636H1.37552C-0.168224 9.17181 -0.168224 12.8338 1.37552 15.942L4.99093 13.1086Z" fill="#FBBC04"/>
<path d="M11.1019 4.35386C12.6536 4.3296 14.1534 4.91972 15.2772 6.00295L18.3847 2.8624C16.417 0.995046 13.8054 -0.0315938 11.1019 0.000741277C6.98657 0.000741277 3.22318 2.34504 1.37549 6.06357L4.99089 8.89694C5.85075 6.28992 8.26236 4.35386 11.1019 4.35386Z" fill="#EA4335"/>
</g>
<defs>
<clipPath id="clip0_140_28756">
<rect width="21.7684" height="22" fill="white"/>
</clipPath>
</defs>
</svg>
